<svg xmlns="http://www.w3.org/2000/svg" width="48" height="48" fill="none" viewBox="0 0 48 48">
  <path fill="#fff" opacity="0.75" fill-rule="evenodd" d="M27 11a2 2 0 0 1 2-2h10a2 2 0 1 1 0 4H29a2 2 0 0 1-2-2Zm0 9a2 2 0 0 1 2-2h10a2 2 0 1 1 0 4H29a2 2 0 0 1-2-2ZM9 29a2 2 0 0 1 2-2h28a2 2 0 1 1 0 4H11a2 2 0 0 1-2-2Zm0 9a2 2 0 0 1 2-2h28a2 2 0 1 1 0 4H11a2 2 0 0 1-2-2Zm7-14a8 8 0 1 0 0-16 8 8 0 0 0 0 16Zm0-13a1 1 0 0 1 1 1v3h3a1 1 0 1 1 0 2h-3v3a1 1 0 1 1-2 0v-3h-3a1 1 0 1 1 0-2h3v-3a1 1 0 0 1 1-1Z" clip-rule="evenodd"/>
</svg>
