<svg xmlns="http://www.w3.org/2000/svg" width="48" height="48" fill="none" viewBox="0 0 48 48">
  <g fill="#fff">
    <path fill-rule="evenodd" d="M15 29a2 2 0 0 1 2-2h24a2 2 0 0 1 0 4H17a2 2 0 0 1-2-2Zm0 8a2 2 0 0 1 2-2h24a2 2 0 0 1 0 4H17a2 2 0 0 1-2-2Zm0-16a2 2 0 0 1 2-2h24a2 2 0 0 1 0 4H17a2 2 0 0 1-2-2Z" clip-rule="evenodd"/>
    <path d="M15 11a2 2 0 0 1 2-2h24a2 2 0 0 1 2 2v2a2 2 0 0 1-2 2H17a2 2 0 0 1-2-2v-2Zm-2.5.134a1 1 0 0 1 0 1.732L8 15.464a1 1 0 0 1-1.5-.866V9.402A1 1 0 0 1 8 8.536l4.5 2.598Z"/>
  </g>
</svg>
