<svg xmlns="http://www.w3.org/2000/svg" width="48" height="48" fill="none" viewBox="0 0 48 48">
  <path stroke="#fff" stroke-width="4" d="m4.414 5.586 34 34"/>
  <path fill="#fff" fill-rule="evenodd" d="M36.58 30.922C41.241 26.061 44 21.814 44 17c0-6.16-4.84-11-11-11-2.194 0-4.333.644-6.16 1.762A11.86 11.86 0 0 0 24 10.18a11.86 11.86 0 0 0-2.84-2.418C19.334 6.644 17.194 6 15 6c-1.027 0-2.018.135-2.956.388l3.646 3.645a8.02 8.02 0 0 1 5.265 2.74L24 16.35l3.045-3.577C28.491 11.076 30.731 10 33 10c3.95 0 7 3.05 7 7 0 2.464-1.071 5.012-3.777 8.322a47.766 47.766 0 0 1-2.472 2.772l2.828 2.828Zm-12.685-7.027-.184 13.153.07.064.009.008.2.18.217-.198.006-.005.025-.023c2.507-2.273 4.735-4.296 6.678-6.158l2.83 2.83c-2.037 1.953-4.326 4.029-6.82 6.291l-.026.023L24 42.7l-2.9-2.62-.079-.072C10.765 30.688 4 24.541 4 17c0-3.6 1.653-6.748 4.256-8.744l2.868 2.868C9.224 12.357 8 14.498 8 17c0 2.46 1.067 5.003 3.764 8.308 2.743 3.362 6.74 7.008 11.947 11.74l.184-13.153Z" clip-rule="evenodd"/>
</svg>