<svg xmlns="http://www.w3.org/2000/svg" width="48" height="48" fill="none" viewBox="0 0 48 48">
  <g fill="#696af4">
    <path fill-rule="evenodd" d="M24 8a7 7 0 0 0-7 7 2 2 0 1 1-4 0c0-6.075 4.925-11 11-11s11 4.925 11 11c0 4.756-2.575 7.193-4.677 9.183l-.44.417c-1.104 1.06-2.037 2.031-2.724 3.281C26.491 29.097 26 30.683 26 33a2 2 0 1 1-4 0c0-2.933.634-5.191 1.654-7.045 1-1.82 2.317-3.146 3.462-4.243l.334-.319C29.6 19.341 31 18.003 31 15a7 7 0 0 0-7-7Z" clip-rule="evenodd"/>
    <path d="M26 41a2 2 0 1 1-4 0 2 2 0 0 1 4 0Z"/>
  </g>
</svg>
