<svg xmlns="http://www.w3.org/2000/svg" width="48" height="48" fill="none" viewBox="0 0 48 48">
  <path fill="#ff83a0" d="m8 22.5-1.36 1.466.001.002.003.002.008.007.023.021.076.069a24.775 24.775 0 0 0 1.269 1.038c.855.653 2.088 1.52 3.62 2.386C14.686 29.211 19.03 31 24 31v-4c-4.03 0-7.685-1.462-10.39-2.991a27.658 27.658 0 0 1-3.16-2.082 20.845 20.845 0 0 1-1.04-.848 6.386 6.386 0 0 1-.051-.047v.001h.001L8 22.5ZM24 31c4.97 0 9.315-1.788 12.36-3.509a31.644 31.644 0 0 0 3.62-2.387 24.795 24.795 0 0 0 1.27-1.037l.075-.069.023-.02.008-.008.003-.002v-.002c.001 0 .002 0-1.359-1.466a344.022 344.022 0 0 1-1.36-1.466v-.001h.002c0-.001 0-.001 0 0-.002 0-.004.002-.008.006l-.045.04a20.81 20.81 0 0 1-1.038.848 27.658 27.658 0 0 1-3.16 2.082C31.685 25.539 28.03 27 24 27v4Z"/>
  <g stroke="#ff83a0" stroke-width="4">
    <path d="m19 36 1-3.5 1-3.5"/>
    <path d="m10 32 2.5-2.5L15 27"/>
    <path d="m38 32-2.5-2.5L33 27"/>
    <path d="m29 36-1-3.5-1-3.5"/>
  </g>
</svg>
