<svg xmlns="http://www.w3.org/2000/svg" width="48" height="48" fill="none" viewBox="0 0 48 48">
  <path fill="#fff" fill-rule="evenodd" d="m24 16.35-3.045-3.577C19.509 11.076 17.269 10 15 10c-3.95 0-7 3.05-7 7 0 2.46 1.067 5.003 3.764 8.308 2.743 3.362 6.74 7.008 11.947 11.74m0 0 .07.064.009.008.2.18.223-.203.025-.023c5.223-4.736 9.233-8.386 11.985-11.752C38.929 22.012 40 19.464 40 17c0-3.95-3.05-7-7-7-2.269 0-4.509 1.076-5.955 2.773L24 16.35m0 26.35 2.9-2.64.025-.023C37.211 30.71 44 24.554 44 17c0-6.16-4.84-11-11-11-2.194 0-4.333.644-6.16 1.762A11.86 11.86 0 0 0 24 10.18a11.86 11.86 0 0 0-2.84-2.418C19.334 6.644 17.194 6 15 6 8.84 6 4 10.84 4 17c0 7.54 6.765 13.689 17.021 23.008l.079.072L24 42.7Z" clip-rule="evenodd"/>
</svg>
