<svg xmlns="http://www.w3.org/2000/svg" width="48" height="48" fill="none" viewBox="0 0 48 48">
  <g fill="#696af4">
    <path fill-rule="evenodd" d="M9 14a2 2 0 0 1 2-2h11a2 2 0 1 1 0 4H11a2 2 0 0 1-2-2Zm0 9a2 2 0 0 1 2-2h11a2 2 0 1 1 0 4H11a2 2 0 0 1-2-2Zm0 9a2 2 0 0 1 2-2h6a2 2 0 1 1 0 4h-6a2 2 0 0 1-2-2Z" clip-rule="evenodd"/>
    <path d="M28.195 11.043c0 .728.388 1.401 1.019 1.765l7.73 4.463c1.358.784 3.056-.199 3.056-1.767 0-.728-.388-1.401-1.019-1.765l-7.73-4.464c-1.358-.784-3.056.2-3.056 1.768Zm0 7.404c0 .728.388 1.402 1.019 1.765l7.73 4.464c1.358.784 3.056-.2 3.056-1.768 0-.727-.388-1.4-1.019-1.765l-7.73-4.463c-1.358-.784-3.056.2-3.056 1.767Zm1.023 10.574c1.358-.784 3.055.196 3.055 1.764v2.483c0 .728-.388 1.4-1.018 1.764l-6.124 3.536a2.037 2.037 0 0 1-2.783-.746l-1.075-1.862a2.037 2.037 0 0 1 .746-2.783l7.199-4.156Z"/>
    <path d="M32.272 11.043a2.04 2.04 0 0 0-1.02-1.765c-1.358-.784-3.058.194-3.058 1.762v22.233c0 1.569 1.7 2.547 3.058 1.763a2.039 2.039 0 0 0 1.02-1.765V11.042Z"/>
  </g>
</svg>
