<svg xmlns="http://www.w3.org/2000/svg" width="48" height="48" fill="none" viewBox="0 0 48 48">
  <g fill="#696af4">
    <path fill-rule="evenodd" d="M24.955 16.5a7.5 7.5 0 1 0 0 15 7.5 7.5 0 0 0 0-15Zm-14.5 7.5c0-8.008 6.492-14.5 14.5-14.5s14.5 6.492 14.5 14.5-6.492 14.5-14.5 14.5-14.5-6.492-14.5-14.5Z" clip-rule="evenodd"/>
    <path d="M29.955 11h-10l1-6h8l1 6Zm0 26h-10l1 6h8l1-6ZM16.196 13.17l-5 8.66L6.5 17.964l4-6.928 5.696 2.134Zm22.517 13-5 8.66 5.696 2.134 4-6.928-4.696-3.866Zm-27.517 0 5 8.66-5.696 2.134-4-6.928 4.696-3.866Zm22.517-13 5 8.66 4.696-3.866-4-6.928-5.696 2.134Z"/>
  </g>
</svg>
