<svg xmlns="http://www.w3.org/2000/svg" width="48" height="48" fill="none" viewBox="0 0 48 48">
  <g fill="#ebebeb">
    <path d="M9 18h6l6.586-6.586c1.26-1.26 3.414-.367 3.414 1.415v22.343c0 1.781-2.154 2.674-3.414 1.414L15.5 30.5H9a2 2 0 0 1-2-2V20a2 2 0 0 1 2-2Z"/>
    <path fill-rule="evenodd" d="M29.146 8.413a2 2 0 0 1 2.604-1.104c.254.103.504.21.751.324C38.693 10.475 43 16.733 43 24c0 7.268-4.307 13.525-10.499 16.367-.247.114-.497.222-.75.324a2 2 0 1 1-1.501-3.708c.196-.08.39-.163.582-.251C35.657 34.518 39 29.647 39 24c0-5.647-3.343-10.517-8.168-12.731a13.749 13.749 0 0 0-.582-.252 2 2 0 0 1-1.104-2.604Z" clip-rule="evenodd"/>
    <path fill-rule="evenodd" d="M29 15.936v16.129A9 9 0 0 0 34 24a9 9 0 0 0-5-8.064Z" clip-rule="evenodd"/>
  </g>
</svg>
