<svg xmlns="http://www.w3.org/2000/svg" width="64" height="64" fill="none" viewBox="0 0 64 64">
  <path fill="#595ae2" fill-rule="evenodd" d="M19.827 13.018a1.613 1.613 0 0 0-2.419 1.397v24.883L8.86 44.233a1.613 1.613 0 0 0-.59 2.203l2.284 3.957a1.613 1.613 0 0 0 2.203.59l6.978-4.028c.031-.015.062-.032.092-.05l1.881-1.086c.5-.288.807-.82.807-1.396V29.74l7.257 4.19a1.613 1.613 0 0 0 2.419-1.397v-2.172c0-.576-.307-1.109-.806-1.397l-8.87-5.12v-3.377l7.257 4.19a1.613 1.613 0 0 0 2.419-1.397v-2.172c0-.576-.307-1.109-.806-1.397l-9.675-5.585-.002-.001-1.88-1.087Zm29.97 20.092a1.613 1.613 0 0 0 0-2.793l-12.499-7.219a1.613 1.613 0 0 0-2.42 1.397V38.93a1.613 1.613 0 0 0 2.42 1.397l12.5-7.218Z" clip-rule="evenodd"/>
</svg>
