<svg xmlns="http://www.w3.org/2000/svg" width="48" height="48" fill="none" viewBox="0 0 48 48">
  <path fill="#595ae2" fill-rule="evenodd" d="M15 5a3 3 0 0 0-3 3h24a3 3 0 0 0-3-3H15Zm-3 6a4 4 0 0 0-4 4v24a4 4 0 0 0 4 4h24a4 4 0 0 0 4-4V15a4 4 0 0 0-4-4H12Zm11.037 5.209c-.43.25-.736.706-.736 1.267v13.435l-4.55 2.58a1.46 1.46 0 0 0-.55 2.013l.792 1.346a1.516 1.516 0 0 0 2.05.54l4.447-2.52.064-.035c.263-.149.469-.37.598-.628.1-.199.154-.421.154-.651v-8.167l3.442 1.951c1.001.567 2.252-.144 2.252-1.278a1.47 1.47 0 0 0-.75-1.277l-4.945-2.803v-1.95l3.444 1.952c1 .567 2.251-.144 2.251-1.279a1.47 1.47 0 0 0-.75-1.277L24.553 16.2a1.51 1.51 0 0 0-1.516.01Z" clip-rule="evenodd"/>
</svg>
