<svg xmlns="http://www.w3.org/2000/svg" width="149" height="48" fill="none" viewBox="0 0 149 48">
  <g fill="#595ae2">
    <path fill-rule="evenodd" d="M14.82 30.7c1.323-.764 2.977.19 2.977 1.718v6.493c0 .71-.378 1.364-.992 1.719L5.789 46.99a1.985 1.985 0 0 1-2.711-.727l-2.812-4.87a1.985 1.985 0 0 1 .727-2.71L14.82 30.7Z" clip-rule="evenodd"/>
    <path d="M51.371 21.556c1.323.764 1.323 2.674 0 3.438L35.99 33.877c-1.324.764-2.977-.19-2.977-1.719V14.392c0-1.528 1.654-2.483 2.977-1.719l15.381 8.883Z"/>
    <path fill-rule="evenodd" d="M11.512 4.661c0 .71.378 1.364.992 1.719l14.224 8.211c1.323.764 2.976-.19 2.976-1.718v-2.674c0-.709-.378-1.364-.992-1.718L14.49.269c-1.323-.764-2.977.19-2.977 1.719V4.66Zm0 11.412c0 .709.378 1.364.992 1.718l14.224 8.212c1.323.764 2.976-.19 2.976-1.719v-2.673c0-.71-.378-1.364-.992-1.719L14.49 11.68c-1.323-.764-2.977.191-2.977 1.72v2.673Z" clip-rule="evenodd"/>
    <path fill-rule="evenodd" d="M11.512 1.988c0-1.528 1.654-2.483 2.977-1.72l2.316 1.338c.614.354.992 1.01.992 1.718v35.592c0 .709-.378 1.364-.992 1.719l-2.316 1.336c-1.323.764-2.977-.19-2.977-1.718V1.987ZM57.158 12.36h6.285v20.26c0 .586.138.818.183.886.058.087.158.184.354.282a2.466 2.466 0 0 0 .897.236l.025.002h-.032l-.01-.001h-.008c-.002 0-.003 0-.003 3.142 0 3.143-.002 3.143-.004 3.143h-.06a7.59 7.59 0 0 1-.356-.017 8.712 8.712 0 0 1-.808-.097 8.729 8.729 0 0 1-2.452-.787 7.132 7.132 0 0 1-2.772-2.417c-.808-1.212-1.239-2.686-1.239-4.373V12.36Zm21.087 13.975a3.804 3.804 0 1 0 0 7.607v6.285c-5.572 0-10.089-4.517-10.089-10.088 0-5.572 4.517-10.089 10.089-10.089 5.571 0 10.088 4.517 10.088 10.088v10.089H82.05V30.139a3.805 3.805 0 0 0-3.804-3.804Zm43.33 3.804a3.804 3.804 0 0 1 7.608 0h6.284c0-5.572-4.516-10.089-10.088-10.089-5.572 0-10.088 4.517-10.088 10.088 0 5.572 4.516 10.089 10.088 10.089h10.088v-6.285h-10.088a3.804 3.804 0 0 1-3.804-3.803ZM97.925 20.05v10.088a3.804 3.804 0 0 0 7.608 0V20.05h6.284V48h-6.284v-8.515a10.06 10.06 0 0 1-3.804.742c-5.572 0-10.088-4.517-10.088-10.088V20.05h6.284Zm47.135 20.177h-6.285V30.139c0-2.266.576-4.174 1.601-5.712 1.011-1.517 2.337-2.49 3.568-3.105a11.584 11.584 0 0 1 3.248-1.04 11.577 11.577 0 0 1 1.407-.146 5.36 5.36 0 0 1 .112-.003h.067c.002 0 .003 0 .003 3.142s.002 3.142.003 3.142h.031-.006l-.099.006a5.312 5.312 0 0 0-.485.059 5.301 5.301 0 0 0-1.47.462c-.485.242-.875.557-1.15.97-.263.393-.545 1.058-.545 2.224v10.089Z" clip-rule="evenodd"/>
  </g>
</svg>
