<svg xmlns="http://www.w3.org/2000/svg" width="48" height="48" fill="none" viewBox="0 0 48 48">
  <path fill="#fff" fill-rule="evenodd" d="M22.158 9.302a1.98 1.98 0 0 0-.95 1.702v18.635L15 33.223a2 2 0 0 0-.732 2.732l1.112 1.926a2 2 0 0 0 2.732.732l6.006-3.467c.03-.016.06-.032.09-.05l.078-.044a2 2 0 0 0 1-1.736v-11.31l4.728 2.73c1.333.77 3-.193 3-1.733v-.09a2 2 0 0 0-1-1.732l-6.728-3.884V14.6l4.728 2.73c1.333.77 3-.192 3-1.732v-.09a2 2 0 0 0-1-1.732L24.209 9.27a1.983 1.983 0 0 0-2.051.03Z" clip-rule="evenodd"/>
</svg>
