<svg xmlns="http://www.w3.org/2000/svg" width="48" height="48" fill="none" viewBox="0 0 48 48">
  <g fill="#262626">
    <path fill-rule="evenodd" d="M8 20a6 6 0 0 1 6-6h11a2 2 0 1 1 0 4H14a2 2 0 0 0-2 2v3a2 2 0 0 1-4 0v-3Zm32 8a6 6 0 0 1-6 6H20a2 2 0 0 1 0-4h14a2 2 0 0 0 2-2v-3a2 2 0 1 1 4 0v3Z" clip-rule="evenodd"/>
    <path d="m31.293 15.293-5.586-5.586c-.63-.63-1.707-.184-1.707.707v11.172c0 .89 1.077 1.337 1.707.707l5.586-5.586a1 1 0 0 0 0-1.414ZM12.707 32.707l5.586 5.586c.63.63 1.707.184 1.707-.707V26.414c0-.89-1.077-1.337-1.707-.707l-5.586 5.586a1 1 0 0 0 0 1.414Z"/>
    <path fill-rule="evenodd" d="M38.574 9.114c.56.232.926.78.926 1.386V20a1.5 1.5 0 1 1-3 0v-5.879l-.44.44a1.5 1.5 0 0 1-2.12-2.122l3-3a1.5 1.5 0 0 1 1.634-.325Z" clip-rule="evenodd"/>
  </g>
</svg>
