<svg xmlns="http://www.w3.org/2000/svg" width="48" height="48" fill="none" viewBox="0 0 48 48">
  <g fill="#595ae2">
    <path fill-rule="evenodd" d="M8 20a6 6 0 0 1 6-6h14a2 2 0 1 1 0 4H14a2 2 0 0 0-2 2v3a2 2 0 1 1-4 0v-3Zm32 8a6 6 0 0 1-6 6H20a2 2 0 1 1 0-4h14a2 2 0 0 0 2-2v-3a2 2 0 1 1 4 0v3Z" clip-rule="evenodd"/>
    <path d="m35.293 15.293-5.586-5.586c-.63-.63-1.707-.184-1.707.707v11.172c0 .89 1.077 1.337 1.707.707l5.586-5.586a1 1 0 0 0 0-1.414ZM12.707 32.707l5.586 5.586c.63.63 1.707.184 1.707-.707V26.414c0-.89-1.077-1.337-1.707-.707l-5.586 5.586a1 1 0 0 0 0 1.414Z"/>
  </g>
</svg>
