<svg xmlns="http://www.w3.org/2000/svg" width="48" height="48" fill="none" viewBox="0 0 48 48">
  <g fill="#595ae2">
    <path d="m41.293 15.293-5.586-5.586c-.63-.63-1.707-.184-1.707.707v11.172c0 .89 1.077 1.337 1.707.707l5.586-5.586a1 1 0 0 0 0-1.414Zm0 16-5.586-5.586c-.63-.63-1.707-.184-1.707.707v11.172c0 .89 1.077 1.337 1.707.707l5.586-5.586a1 1 0 0 0 0-1.414Z"/>
    <path fill-rule="evenodd" d="M6 16a2 2 0 0 1 2-2h5a2 2 0 0 1 1.414.586L29.828 30H35a2 2 0 1 1 0 4h-6a2 2 0 0 1-1.414-.586L12.172 18H8a2 2 0 0 1-2-2Z" clip-rule="evenodd"/>
    <path fill-rule="evenodd" d="M6 32a2 2 0 0 0 2 2h5a2 2 0 0 0 1.414-.586L29.828 18H35a2 2 0 1 0 0-4h-6a2 2 0 0 0-1.414.586L12.172 30H8a2 2 0 0 0-2 2Z" clip-rule="evenodd"/>
  </g>
</svg>
